<svg id="Layer_1" data-name="Layer 1" xmlns="http://www.w3.org/2000/svg" viewBox="0 0 142.89 169.04"><defs><style>.cls-1{fill:#e85454;}.cls-2{fill:#ed6361;}.cls-3{fill:#ffcc5c;}.cls-4{fill:#fcbd4a;}.cls-5{fill:#ffdb70;}.cls-6{fill:#ffd67d;}.cls-7{fill:#ffe38c;}.cls-8{fill:#241f21;}.cls-9{fill:#ed9921;}</style></defs><title>AwardThing</title><polygon class="cls-1" points="0 142.63 33.52 139.54 49.75 169.04 86.67 99.49 36.92 73.08 0 142.63"/><path class="cls-2" d="M47.16,154.62a4.71,4.71,0,0,0-2.21-6l-2.12-1.13a4.54,4.54,0,0,1,4.37-8l6,3.19a3.79,3.79,0,0,0,5.14-1.6l0.15-.29a3.58,3.58,0,0,0-1.38-5.05l-18-9.53a4.73,4.73,0,0,1-2.24-6,4.55,4.55,0,0,1,6.26-2.09l16.66,8.84A3.83,3.83,0,0,0,65,125.34l0.1-.24,0-.05a4,4,0,0,0-1.64-5.43l-9.34-5a4.73,4.73,0,0,1-2.22-6.07,4.57,4.57,0,0,1,6.26-2.09L68.47,112a3.85,3.85,0,0,0,5.23-1.78l0-.05,0-.05a3.85,3.85,0,0,0-1.47-5.33L61.15,98.86a4.72,4.72,0,0,1-2.22-6,4.55,4.55,0,0,1,6.26-2.09l27.47,14.58L55.75,174.87,45.58,156.38a4.33,4.33,0,0,0,1.58-1.76" transform="translate(-6.01 -5.84)"/><polygon class="cls-2" points="56.22 99.49 93.14 169.04 109.36 139.54 142.89 142.63 105.97 73.08 56.22 99.49"/><path class="cls-1" d="M107.76,154.62a4.71,4.71,0,0,1,2.21-6l2.13-1.13a4.54,4.54,0,0,0-4.37-8l-6,3.19a3.79,3.79,0,0,1-5.14-1.6l-0.15-.29a3.58,3.58,0,0,1,1.38-5.05l18-9.53a4.73,4.73,0,0,0,2.24-6,4.55,4.55,0,0,0-6.26-2.09L95.1,126.92a3.83,3.83,0,0,1-5.16-1.59l-0.1-.24,0-.05a4,4,0,0,1,1.64-5.43l9.34-5a4.73,4.73,0,0,0,2.22-6.07,4.57,4.57,0,0,0-6.26-2.09L86.44,112a3.85,3.85,0,0,1-5.23-1.78l0-.05,0-.05a3.85,3.85,0,0,1,1.46-5.33l11.14-5.91a4.72,4.72,0,0,0,2.21-6,4.55,4.55,0,0,0-6.26-2.09L62.24,105.33l36.92,69.55,10.17-18.49a4.4,4.4,0,0,1-1.57-1.77" transform="translate(-6.01 -5.84)"/><path class="cls-3" d="M77.46,5.84A61.68,61.68,0,1,1,15.78,67.52,61.68,61.68,0,0,1,77.46,5.84" transform="translate(-6.01 -5.84)"/><path class="cls-4" d="M85.82,60.44H46.74a5.56,5.56,0,0,1-5.53-5.53l0-.38V54.44A5.78,5.78,0,0,1,47,48.61H74.12a6.85,6.85,0,0,0,7-6.25,6.62,6.62,0,0,0-6.59-6.93H45.81a5.59,5.59,0,0,1-5.49-5.83V29.43a5.59,5.59,0,0,1,5.49-5.83h30a6.84,6.84,0,0,0,6.93-6.21,6.6,6.6,0,0,0-6.59-6.93h-22a61.67,61.67,0,0,0,0,114.09H82.11A6.84,6.84,0,0,0,89,118.34a6.59,6.59,0,0,0-6.59-6.92H50.68a6.57,6.57,0,0,1-6.56-6.93,6.83,6.83,0,0,1,6.93-6.22H63.37a6.58,6.58,0,0,0-.19-13.16H44.51A5.49,5.49,0,0,1,39,79.57V79.11a5.2,5.2,0,0,1,5.19-5.53H85.44a6.85,6.85,0,0,0,7-6.21,6.6,6.6,0,0,0-6.59-6.92" transform="translate(-6.01 -5.84)"/><path class="cls-5" d="M77.46,111.54a44,44,0,1,1,44-44,44.08,44.08,0,0,1-44,44" transform="translate(-6.01 -5.84)"/><path class="cls-6" d="M121.48,66.9h0Zm0,0h0Zm0,0h0m0,0h0m0,0h0m0,0h0m0,0h0m0,0h0m0,0h0m0,0h0m0,0h0m0,0v0m0,0v0m0,0v0m0,0v0m0,0v0m0,0v0m0,0v0m0,0v0m0,0v0m0,0v0m0,0v0m0,0v0m0,0v0m0,0v0m0,0v0m0,0v0m0,0v0m0,0v0m0,0v0m0,0v0m0,0v0m0,0v0m0,0v0m0,0h0m0,0v0m0,0v0m0,0h0m0,0.09h0m0,0h0m0,0h0m0,0h0m0,0h0m0,0h0m0,0.09h0Zm0,0h0m0,0h0m0,0h0m0,0h0Z" transform="translate(-6.01 -5.84)"/><path class="cls-7" d="M80,23.62h-4.1a5.22,5.22,0,0,0-5.28,4.74,5,5,0,0,0,5,5.29H99.85a5,5,0,0,1,5,5.29,5.21,5.21,0,0,1-5.29,4.75H90.17a5,5,0,0,0,.14,10h14.24a4.19,4.19,0,0,1,4.19,4.22v0.35a4,4,0,0,1-4,4.22H73.34A5.23,5.23,0,0,0,68,67.23a5,5,0,0,0,5,5.29h29.81a4.23,4.23,0,0,1,4.22,4.22L107,77v0.06a4.41,4.41,0,0,1-4.41,4.44H82a5.23,5.23,0,0,0-5.32,4.77,5.05,5.05,0,0,0,5,5.29h21.89A4.26,4.26,0,0,1,107.74,96v0.13a4.26,4.26,0,0,1-4.19,4.44H80.66a5.22,5.22,0,0,0-5.29,4.74,5,5,0,0,0,5,5.29h6a44.11,44.11,0,0,0,35-42h0v0h0v0h0v0h0v0h0s0-.06,0-0.08h0v0h0v0h0v0h0v0h0v0h0s0,0,0-.07h0V68.11h0V68h0v0h0V67.92h0v0h0v0h0v0h0v0h0v0h0v0h0v0h0v0h0v0h0v0h0V67.22h0v0h0v0h0v0h0v0h0v0h0v0h0v0h0v0h0v0h0A44.05,44.05,0,0,0,80,23.62" transform="translate(-6.01 -5.84)"/><path class="cls-8" d="M83.55,74.19l-5-17H78.44l-5.35,17H83.55ZM70.14,38.62H86.8L107,94H89.28L87,86H69.37L66.89,94H49.76Z" transform="translate(-6.01 -5.84)"/><path class="cls-9" d="M82.56,73.53l-5-17H77.44l-5.35,17H82.56ZM69.15,38H85.81L106,93.29H88.29L86,85.39H68.38l-2.48,7.9H48.77Z" transform="translate(-6.01 -5.84)"/></svg>