<svg id="Layer_1" data-name="Layer 1" xmlns="http://www.w3.org/2000/svg" viewBox="0 0 399.89 428.27"><defs><style>.cls-1{fill:#fff;}</style></defs><title>HandTapIcon</title><path class="cls-1" d="M96.88,172.16a8.64,8.64,0,0,0-.62-12.2,51.77,51.77,0,1,1,81.19-61.41,51.07,51.07,0,0,1,5.13,18.26,8.64,8.64,0,0,0,17.21-1.57,69.11,69.11,0,1,0-115.1,57.55,8.63,8.63,0,0,0,12.2-.62" transform="translate(-18.75 -9.4)"/><path class="cls-1" d="M396.77,347.66c-8.17,22.37-27.36,41.23-57.07,56.08-48.1,24-91.85,21.73-130-6.91-29.23-21.93-66.62-41.54-103.14-54.13-3.22-8.08-2.66-15.13,1.64-20.09,5.93-6.85,21.86-11.84,47.23-3.38,13.56,4.52,32.62,9.32,41.66-1.1,3.74-4.3,6.71-12.38-.3-26.42L119.52,137.19c-1.76-3.51-3.93-7.86-3.61-11.62,0.35-4.08,4.17-8,11.34-11.56,15.46-7.72,18.86-.9,23.17,7.73l57.94,115.89,0,0c7.73,15.42,19.31,19.28,27,15.42l-11.59-23.17-11.59-23.18L227.68,199c14.2-7.12,18.69-1.06,19.32,0l3.87,7.73c7.73,15.45,19.32,19.3,27,15.44L266.31,199l-3.86-7.73,15.45-7.73c14.24-7.1,18.67-1.06,19.31,0,7.73,15.45,19.32,19.31,27,15.44l-11.59-23.17c7.88-3.94,15.07-3.37,22.64,1.82,7.09,4.84,14.15,13.8,19.85,25.22l30.91,61.8c15.73,31.47,19.33,59.39,10.71,83m4.74-90.72-30.91-61.8c-5-9.91-13.4-23.45-25.54-31.76-12.76-8.73-26.63-9.76-40.13-3l-7.3,3.64c-6.33-1.83-15.41-1.94-27.47,4.08L247.5,179.44c-6.92-2-16.08-1.62-27.55,4.12l-15.45,7.73L165.86,114c-3.81-7.64-15.45-30.88-46.34-15.45C106.59,105,99.59,113.61,98.7,124.09c-0.74,8.61,2.93,16,5.37,20.83l77.26,154.52c1.92,3.85,2.39,6.25,2.44,7.34-1.64.46-7.45,1.21-22.89-3.95-28.38-9.45-53-6.3-65.76,8.45-9.58,11-10.54,26.45-2.64,42.25a8.6,8.6,0,0,0,5,4.33c36,12,73.07,31.2,101.83,52.78,24,18,49.79,27,77.17,27q33.92,0,70.94-18.47c33.77-16.89,55.84-39,65.58-65.6,10.33-28.24,6.45-60.76-11.49-96.65" transform="translate(-18.75 -9.4)"/><path class="cls-1" d="M80.69,202.16a95,95,0,1,1,145-72.5,8.64,8.64,0,0,0,17.21,1.45A112.29,112.29,0,1,0,71.52,216.81a8.64,8.64,0,1,0,9.16-14.64" transform="translate(-18.75 -9.4)"/></svg>