<svg id="Logo_Sanofi_Genzyme" data-name="Logo Sanofi Genzyme" xmlns="http://www.w3.org/2000/svg" viewBox="0 0 232.33 27.04"><defs><style>.cls-1,.cls-2{fill:#fff;}.cls-1{fill-rule:evenodd;}</style></defs><title>SanofiGenzyme_Logo</title><path class="cls-1" d="M49.15,44.13l-1.66,4.5H45.07L50.8,33.51a1.59,1.59,0,0,1,1.48-1,1.57,1.57,0,0,1,1.47,1l5.73,15.11H57l-1.65-4.5H49.15Zm3.12-8.54L49.92,42h4.71Zm12.83,0.79V48.63H62.76V34.13a1.62,1.62,0,0,1,1.62-1.62,1.53,1.53,0,0,1,1.38.77c2.31,3.75,6.58,10.85,7,11.62V32.66h2.33V47.15a1.62,1.62,0,0,1-1.62,1.62A1.52,1.52,0,0,1,72.15,48c-2.31-3.75-6.57-10.84-7-11.62m35.61-3.72h7.54v2.14H101.5V40h6.76v2.13H101.5v6.51H99.17V34.21a1.55,1.55,0,0,1,1.55-1.55M38,34.46A2.35,2.35,0,0,0,35.41,37a2,2,0,0,0,1,1.48,5.53,5.53,0,0,0,1,.42L39,39.43a9.53,9.53,0,0,1,2.81,1.33,4.09,4.09,0,0,1,1.36,3.06,5,5,0,0,1-5.28,5,5.12,5.12,0,0,1-5.39-4.91h2.25a3,3,0,0,0,3.13,2.88,2.76,2.76,0,0,0,3-2.65,2.28,2.28,0,0,0-1.28-2.09,7.06,7.06,0,0,0-.92-0.38l-1.26-.42a13.5,13.5,0,0,1-2.41-1,3.74,3.74,0,0,1-1.87-3.25,4.64,4.64,0,0,1,4.95-4.65,4.78,4.78,0,0,1,4.77,4.34H40.57A2.56,2.56,0,0,0,38,34.46m49.18-1.95A8.13,8.13,0,1,1,79,40.68a8.07,8.07,0,0,1,8.14-8.17m-0.09,2.18a6,6,0,1,0,5.85,6,5.82,5.82,0,0,0-5.85-6m25.45-2h2.33v16H112.5v-16Z" transform="translate(-32.51 -27.13)"/><path class="cls-2" d="M132.46,48.89a8.49,8.49,0,0,1-8.54-8.24,8.41,8.41,0,0,1,8.52-8.24,8.64,8.64,0,0,1,6.5,2.93,5.64,5.64,0,0,1,1,1.59h-1.85a6.66,6.66,0,0,0-5.66-3.08,6.8,6.8,0,1,0,.06,13.6A6.76,6.76,0,0,0,139,42.73h-8.89V41.29h10.8A8.35,8.35,0,0,1,132.46,48.89Zm11.64-.28V32.69h8.71v1.44h-7.12v5.72h6.88v1.44h-6.88v5.87h7.12v1.44H144.1Zm23.5,0-9.44-14h0v14h-1.59V32.69h2.15l8.89,13.21h0V32.69h1.59V48.61H167.6Zm4.26,0V47.17l7.83-13H172.1V32.69h9.38v1.44l-7.81,13h8v1.44h-9.85Zm18-5.31v5.31h-1.59V43.29l-5.53-10.61h1.76L189,41.62l4.67-8.93h1.74Zm22.92,5.31V34.43h0l-6,14.18h-1.36l-5.92-14.18h0V48.61h-1.59V32.69h2.45l5.79,13.55,5.81-13.55h2.45V48.61h-1.59Zm5.51,0V32.69H227v1.44h-7.12v5.72h6.88v1.44h-6.88v5.87H227v1.44h-8.71Z" transform="translate(-32.51 -27.13)"/><path class="cls-2" d="M264.21,36.56c-4.36-6.4-9.24-.78-14.15-1.47s-5-7.36,1-7.93l0.43,0a13.52,13.52,0,0,1,12.75,9.43" transform="translate(-32.51 -27.13)"/><path class="cls-1" d="M264.33,36.94a13.55,13.55,0,0,1-13,17.23A13.47,13.47,0,0,1,242.7,51a8.37,8.37,0,0,0,2.95.53c12.25,0.07,7-16.21,18.69-14.64" transform="translate(-32.51 -27.13)"/><path class="cls-1" d="M246.39,49.93c-1.7,1-4.39.73-6.25-1.83a11.19,11.19,0,0,1-1.05-1.72,13.4,13.4,0,0,1-1.28-5.75A13.55,13.55,0,0,1,237.9,39c3,4,6.35,3.85,8.51,5.14a3.4,3.4,0,0,1,0,5.76" transform="translate(-32.51 -27.13)"/></svg>