<svg id="Layer_1" data-name="Layer 1" xmlns="http://www.w3.org/2000/svg" viewBox="0 0 1031.52 441.56"><defs><style>.cls-1{fill:#fff;}</style></defs><title>DUPA-19-111_1080_BKnowOurType_Lettermark</title><path class="cls-1" d="M938.48,472.79h61.89l13.08-62.24H951.56ZM1053.76,220.3H991.52l-13.44,63.3-6,105.38h29.35l39.25-105.38ZM695.18,472.79H897.46l12-56.58H772.63l9.9-48.09H907.71l10.61-50.92H793.14l8.13-40.31H937.06l12-56.58H747.52ZM558,274.4h37.13c20.51,0,39.61,2.83,39.61,27.23,0,20.86-13.08,35.36-43.5,35.36H544.89ZM450.47,472.79h65.78l17.33-81.69h58.35c61.53,0,108.56-31.83,108.56-95.48,0-44.91-27.58-75.32-72.85-75.32H503.52Zm-168.32,0h65.07l20.16-95.48,123.77-157H412.28l-70.37,105-30.06-105H244l58.35,157ZM247.85,220.3H33.55L22.24,276.88H96.5L55.12,472.79H120.9l41.37-195.91h74.26Z" transform="translate(-22.24 -31.23)"/><path class="cls-1" d="M890,180.36h19.38l13.06-62.23h43c8.36,0,28-3.67,21.83,31-2.86,14.89-2.24,25.91-.41,31.21h20.2c-5.92-11.63-1-24.07-.2-37.34,1.43-14.69-2.24-27.75-14.89-31.62V111c19.38-2.86,32.85-19.79,32.85-39.17,0-28.77-23.26-37.13-47.94-37.13h-56.1ZM936.68,51h40.19c14.49,0,28.56,3.88,28.56,22,0,10.4-5.3,28.77-35.91,28.77H925.87ZM889.76,34.7H870.38L852,122c-5.71,27.34-12.65,45.5-44.48,45.5-28.15,0-41-14.08-34.48-42.23L792.25,34.7H772.86l-18.16,85.69c-8.36,40.6,10.2,63.45,52.84,63.45,24.69,0,46.92-9.79,56.72-33.87,2.45-5.71,4.9-16.73,7.34-28ZM613.53,120c0-35.09,20-72.42,60.59-72.42,26.93,0,41.41,21.22,41.41,48.15,0,34.68-20.4,71.81-59,71.81-29.18,0-43-19.38-43-47.54m-19.38,0c0,40.19,22.65,63.86,62.43,63.86,48.56,0,78.34-42.44,78.34-88.14,0-36.11-23.05-64.47-60.8-64.47-49.78,0-80,41.62-80,88.75M545.8,34.7H428.28L424.82,51h49L446.44,180.36h19.38L493.16,51h49Zm-140.16,43c1-32.44-24.07-46.51-52.84-46.51-25.91,0-53,14.08-53,42.23,0,21.42,15.3,32,32.64,36.72l19.79,5.3c14.28,3.88,25.91,9.18,25.91,24.07,0,19.59-18.36,28-36.52,28-23.67,0-40-8.57-38.76-34.89H283.43c-2.45,35.7,22.24,51.21,57.33,51.21,26.32,0,56.72-14.28,56.72-44.27,0-26.11-16.93-34.48-35.09-39.37l-19.58-5.3c-13.26-3.67-23.67-9.39-23.67-23.46,0-17.34,19.38-23.87,33.66-23.87,20,0,34.07,7.14,33.46,30.19h19.38Zm-124-43H262.22L243.86,122c-5.71,27.34-12.65,45.5-44.47,45.5-28.15,0-41-14.08-34.48-42.23L184.08,34.7H164.7l-18.16,85.69c-8.37,40.6,10.2,63.45,52.84,63.45,24.68,0,46.92-9.79,56.72-33.87,2.45-5.71,4.9-16.73,7.34-28Zm-147.3,0H115.13L93.91,134.46c-3.47,15.91-8.16,33.05-27.75,33.05-13.26,0-21.42-5.92-21.42-19.79a92.63,92.63,0,0,1,2-15.1H27.19a116.65,116.65,0,0,0-1.84,20.2c0,20.2,16.93,31,40.4,31,29.17,0,40.19-14.28,45.5-39.38Z" transform="translate(-22.24 -31.23)"/></svg>